#Comment line ignore any data following # character 
#Hierarchical Translation and Rotation (.htr) file 
[Header]	
#Header keywords are followed by a single value 
FileType HTR		#Single word string
DataType HTRS		#Translation followed by rotation and scale data
FileVersion 1		#integer
NumSegments 84		#integer
NumFrames 2		#integer
DataFrameRate 30		#integer, data frame rate in this file
EulerRotationOrder ZYX
CalibrationUnits mm
RotationUnits Degrees
GlobalAxisofGravity Y
BoneLengthAxis Y
ScaleFactor 1.00
[SegmentNames&Hierarchy]
#CHILD	PARENT
MASTER GLOBAL
root MASTER
chest root
L_mid_tent01 root
R_mid_tent01 root
spine01 root
Bip01_Neck chest
L_humerus chest
R_humerus chest
weapon_bone chest
Bip01_Head Bip01_Neck
eye_left_bone Bip01_Head
eye_right_bone Bip01_Head
L_forearm L_humerus
L_front_hand L_forearm
L_weapon_bone L_forearm
L_front_hand01_01 L_front_hand
L_front_hand02_01 L_front_hand
L_front_hand03_01 L_front_hand
L_front_hand01_02 L_front_hand01_01
L_front_hand02_02 L_front_hand02_01
L_front_hand03_02 L_front_hand03_01
R_forearm R_humerus
R_front_hand R_forearm
R_weapon_bone R_forearm
R_front_hand01_01 R_front_hand
R_front_hand02_01 R_front_hand
R_front_hand03_01 R_front_hand
R_front_hand01_02 R_front_hand01_01
R_front_hand02_02 R_front_hand02_01
R_front_hand03_02 R_front_hand03_01
null_rope01_connect L_mid_tent01
Rope1_Seg01 null_rope01_connect
Rope1_Seg02 Rope1_Seg01
Rope1_Seg03 Rope1_Seg02
Rope1_Seg04 Rope1_Seg03
Rope1_Seg05 Rope1_Seg04
Rope1_Seg06 Rope1_Seg05
Rope1_Seg07 Rope1_Seg06
Rope1_Seg09 Rope1_Seg07
L_mid_hand01 Rope1_Seg09
L_mid_hand02 Rope1_Seg09
L_mid_hand03 Rope1_Seg09
null_rope02_connect R_mid_tent01
Rope2_Seg01 null_rope02_connect
Rope2_Seg02 Rope2_Seg01
Rope2_Seg03 Rope2_Seg02
Rope2_Seg04 Rope2_Seg03
Rope2_Seg05 Rope2_Seg04
Rope2_Seg06 Rope2_Seg05
Rope2_Seg07 Rope2_Seg06
Rope2_Seg09 Rope2_Seg07
R_mid_hand01 Rope2_Seg09
R_mid_hand02 Rope2_Seg09
R_mid_hand03 Rope2_Seg09
spine02 spine01
spine03 spine02
pelvis spine03
null_rope03_connect pelvis
null_rope04_connect pelvis
Rope3_Seg01 null_rope03_connect
Rope3_Seg02 Rope3_Seg01
Rope3_Seg03 Rope3_Seg02
Rope3_Seg04 Rope3_Seg03
Rope3_Seg05 Rope3_Seg04
Rope3_Seg06 Rope3_Seg05
Rope3_Seg07 Rope3_Seg06
Rope3_Seg08 Rope3_Seg07
Rope3_Seg09 Rope3_Seg08
R_rear_hand01 Rope3_Seg09
R_rear_hand02 Rope3_Seg09
R_rear_hand03 Rope3_Seg09
Rope4_Seg01 null_rope04_connect
Rope4_Seg02 Rope4_Seg01
Rope4_Seg03 Rope4_Seg02
Rope4_Seg04 Rope4_Seg03
Rope4_Seg05 Rope4_Seg04
Rope4_Seg06 Rope4_Seg05
Rope4_Seg07 Rope4_Seg06
Rope4_Seg08 Rope4_Seg07
Rope4_Seg09 Rope4_Seg08
L_rear_hand01 Rope4_Seg09
L_rear_hand02 Rope4_Seg09
L_rear_hand03 Rope4_Seg09
[BasePosition]
#SegmentName Tx, Ty, Tz, Rx, Ry, Rz, BoneLength
MASTER 0.000000 0.000000 0.000000 -90.000000 0.000000 0.000000 10.000000 
root 0.000000 0.000000 0.000000 0.000000 0.000000 0.000000 10.000000 
chest 0.000000 0.000000 0.000000 0.000000 0.000000 0.000000 10.000000 
L_mid_tent01 0.000000 0.000000 0.000000 0.000000 0.000000 0.000000 10.000000 
R_mid_tent01 0.000000 0.000000 0.000000 0.000000 0.000000 0.000000 10.000000 
spine01 0.000000 0.000000 0.000000 0.000000 0.000000 0.000000 10.000000 
Bip01_Neck 0.000000 0.000000 0.000000 0.000000 0.000000 0.000000 10.000000 
L_humerus 0.000000 0.000000 0.000000 0.000000 0.000000 0.000000 10.000000 
R_humerus 0.000000 0.000000 0.000000 0.000000 0.000000 0.000000 10.000000 
weapon_bone 0.000000 0.000000 0.000000 0.000000 0.000000 0.000000 10.000000 
Bip01_Head 0.000000 0.000000 0.000000 0.000000 0.000000 0.000000 10.000000 
eye_left_bone 0.000000 0.000000 0.000000 0.000000 0.000000 0.000000 10.000000 
eye_right_bone 0.000000 0.000000 0.000000 0.000000 0.000000 0.000000 10.000000 
L_forearm 0.000000 0.000000 0.000000 0.000000 0.000000 0.000000 10.000000 
L_front_hand 0.000000 0.000000 0.000000 0.000000 0.000000 0.000000 10.000000 
L_weapon_bone 0.000000 0.000000 0.000000 0.000000 0.000000 0.000000 10.000000 
L_front_hand01_01 0.000000 0.000000 0.000000 0.000000 0.000000 0.000000 10.000000 
L_front_hand02_01 0.000000 0.000000 0.000000 0.000000 0.000000 0.000000 10.000000 
L_front_hand03_01 0.000000 0.000000 0.000000 0.000000 0.000000 0.000000 10.000000 
L_front_hand01_02 0.000000 0.000000 0.000000 0.000000 0.000000 0.000000 10.000000 
L_front_hand02_02 0.000000 0.000000 0.000000 0.000000 0.000000 0.000000 10.000000 
L_front_hand03_02 0.000000 0.000000 0.000000 0.000000 0.000000 0.000000 10.000000 
R_forearm 0.000000 0.000000 0.000000 0.000000 0.000000 0.000000 10.000000 
R_front_hand 0.000000 0.000000 0.000000 0.000000 0.000000 0.000000 10.000000 
R_weapon_bone 0.000000 0.000000 0.000000 0.000000 0.000000 0.000000 10.000000 
R_front_hand01_01 0.000000 0.000000 0.000000 0.000000 0.000000 0.000000 10.000000 
R_front_hand02_01 0.000000 0.000000 0.000000 0.000000 0.000000 0.000000 10.000000 
R_front_hand03_01 0.000000 0.000000 0.000000 0.000000 0.000000 0.000000 10.000000 
R_front_hand01_02 0.000000 0.000000 0.000000 0.000000 0.000000 0.000000 10.000000 
R_front_hand02_02 0.000000 0.000000 0.000000 0.000000 0.000000 0.000000 10.000000 
R_front_hand03_02 0.000000 0.000000 0.000000 0.000000 0.000000 0.000000 10.000000 
null_rope01_connect 0.000000 0.000000 0.000000 0.000000 0.000000 0.000000 10.000000 
Rope1_Seg01 0.000000 0.000000 0.000000 0.000000 0.000000 0.000000 10.000000 
Rope1_Seg02 0.000000 0.000000 0.000000 0.000000 0.000000 0.000000 10.000000 
Rope1_Seg03 0.000000 0.000000 0.000000 0.000000 0.000000 0.000000 10.000000 
Rope1_Seg04 0.000000 0.000000 0.000000 0.000000 0.000000 0.000000 10.000000 
Rope1_Seg05 0.000000 0.000000 0.000000 0.000000 0.000000 0.000000 10.000000 
Rope1_Seg06 0.000000 0.000000 0.000000 0.000000 0.000000 0.000000 10.000000 
Rope1_Seg07 0.000000 0.000000 0.000000 0.000000 0.000000 0.000000 10.000000 
Rope1_Seg09 0.000000 0.000000 0.000000 0.000000 0.000000 0.000000 10.000000 
L_mid_hand01 0.000000 0.000000 0.000000 0.000000 0.000000 0.000000 10.000000 
L_mid_hand02 0.000000 0.000000 0.000000 0.000000 0.000000 0.000000 10.000000 
L_mid_hand03 0.000000 0.000000 0.000000 0.000000 0.000000 0.000000 10.000000 
null_rope02_connect 0.000000 0.000000 0.000000 0.000000 0.000000 0.000000 10.000000 
Rope2_Seg01 0.000000 0.000000 0.000000 0.000000 0.000000 0.000000 10.000000 
Rope2_Seg02 0.000000 0.000000 0.000000 0.000000 0.000000 0.000000 10.000000 
Rope2_Seg03 0.000000 0.000000 0.000000 0.000000 0.000000 0.000000 10.000000 
Rope2_Seg04 0.000000 0.000000 0.000000 0.000000 0.000000 0.000000 10.000000 
Rope2_Seg05 0.000000 0.000000 0.000000 0.000000 0.000000 0.000000 10.000000 
Rope2_Seg06 0.000000 0.000000 0.000000 0.000000 0.000000 0.000000 10.000000 
Rope2_Seg07 0.000000 0.000000 0.000000 0.000000 0.000000 0.000000 10.000000 
Rope2_Seg09 0.000000 0.000000 0.000000 0.000000 0.000000 0.000000 10.000000 
R_mid_hand01 0.000000 0.000000 0.000000 0.000000 0.000000 0.000000 10.000000 
R_mid_hand02 0.000000 0.000000 0.000000 0.000000 0.000000 0.000000 10.000000 
R_mid_hand03 0.000000 0.000000 0.000000 0.000000 0.000000 0.000000 10.000000 
spine02 0.000000 0.000000 0.000000 0.000000 0.000000 0.000000 10.000000 
spine03 0.000000 0.000000 0.000000 0.000000 0.000000 0.000000 10.000000 
pelvis 0.000000 0.000000 0.000000 0.000000 0.000000 0.000000 10.000000 
null_rope03_connect 0.000000 0.000000 0.000000 0.000000 0.000000 0.000000 10.000000 
null_rope04_connect 0.000000 0.000000 0.000000 0.000000 0.000000 0.000000 10.000000 
Rope3_Seg01 0.000000 0.000000 0.000000 0.000000 0.000000 0.000000 10.000000 
Rope3_Seg02 0.000000 0.000000 0.000000 0.000000 0.000000 0.000000 10.000000 
Rope3_Seg03 0.000000 0.000000 0.000000 0.000000 0.000000 0.000000 10.000000 
Rope3_Seg04 0.000000 0.000000 0.000000 0.000000 0.000000 0.000000 10.000000 
Rope3_Seg05 0.000000 0.000000 0.000000 0.000000 0.000000 0.000000 10.000000 
Rope3_Seg06 0.000000 0.000000 0.000000 0.000000 0.000000 0.000000 10.000000 
Rope3_Seg07 0.000000 0.000000 0.000000 0.000000 0.000000 0.000000 10.000000 
Rope3_Seg08 0.000000 0.000000 0.000000 0.000000 0.000000 0.000000 10.000000 
Rope3_Seg09 0.000000 0.000000 0.000000 0.000000 0.000000 0.000000 10.000000 
R_rear_hand01 0.000000 0.000000 0.000000 0.000000 0.000000 0.000000 10.000000 
R_rear_hand02 0.000000 0.000000 0.000000 0.000000 0.000000 0.000000 10.000000 
R_rear_hand03 0.000000 0.000000 0.000000 0.000000 0.000000 0.000000 10.000000 
Rope4_Seg01 0.000000 0.000000 0.000000 0.000000 0.000000 0.000000 10.000000 
Rope4_Seg02 0.000000 0.000000 0.000000 0.000000 0.000000 0.000000 10.000000 
Rope4_Seg03 0.000000 0.000000 0.000000 0.000000 0.000000 0.000000 10.000000 
Rope4_Seg04 0.000000 0.000000 0.000000 0.000000 0.000000 0.000000 10.000000 
Rope4_Seg05 0.000000 0.000000 0.000000 0.000000 0.000000 0.000000 10.000000 
Rope4_Seg06 0.000000 0.000000 0.000000 0.000000 0.000000 0.000000 10.000000 
Rope4_Seg07 0.000000 0.000000 0.000000 0.000000 0.000000 0.000000 10.000000 
Rope4_Seg08 0.000000 0.000000 0.000000 0.000000 0.000000 0.000000 10.000000 
Rope4_Seg09 0.000000 0.000000 0.000000 0.000000 0.000000 0.000000 10.000000 
L_rear_hand01 0.000000 0.000000 0.000000 0.000000 0.000000 0.000000 10.000000 
L_rear_hand02 0.000000 0.000000 0.000000 0.000000 0.000000 0.000000 10.000000 
L_rear_hand03 0.000000 0.000000 0.000000 0.000000 0.000000 0.000000 10.000000 
#Beginning of Data. Separated by tabs
#Fr	Tx	Ty	Tz	Rx	Ry	Rz	SF
[MASTER]
3 0.000000 0.000000 0.000000 0.001660 0.001660 0.001660 0.000000
4 0.000000 0.000000 0.000000 0.001660 0.001660 0.001660 0.000000
[root]
3 -7.081811 -14.745722 1508.860596 -93.785431 -13.513092 -73.699745 1508.949219
4 -3.913274 -36.108444 1574.549927 -95.951691 -15.584632 -68.030861 1574.968750
[chest]
3 -84.512650 -34.090519 0.000000 -2.280676 0.934732 168.901352 91.129311
4 -84.512650 -34.090519 0.000000 -2.377219 1.640451 169.635284 91.129311
[L_mid_tent01]
3 27.299097 22.179403 -249.918640 -30.032732 18.029821 5.080510 252.381653
4 27.299095 22.179398 -249.918640 -36.021832 20.466997 1.107757 252.381653
[R_mid_tent01]
3 23.228794 24.509907 226.238495 -170.908920 -35.256550 37.899864 228.744751
4 23.228794 24.509907 226.238495 179.746643 -44.266590 52.678623 228.744751
[spine01]
3 -0.361383 -0.195265 0.000000 0.001945 0.001314 21.890678 0.410763
4 -0.361383 -0.195265 0.000000 0.001944 0.001316 21.810093 0.410763
[Bip01_Neck]
3 165.484543 71.581718 0.000119 175.896118 1.177290 24.871183 180.302734
4 165.484543 71.581718 0.000119 175.896118 1.177290 24.871183 180.302734
[L_humerus]
3 -13.983130 -135.272980 -120.471481 0.008215 68.336388 91.670502 181.680161
4 -13.983130 -135.272980 -120.471481 7.328568 71.537392 99.636650 181.680161
[R_humerus]
3 -13.983309 -135.273102 125.287651 52.310909 -64.004662 50.118355 184.909012
4 -13.983309 -135.273102 125.287651 67.825600 -62.180519 38.915115 184.909012
[weapon_bone]
3 235.964890 -300.705902 0.000000 0.000000 -89.951546 -128.212341 382.234833
4 235.964890 -300.705902 0.000000 0.000000 -89.951546 -128.212341 382.234833
[Bip01_Head]
3 209.993332 142.528687 8.062406 -2.206432 1.354962 -61.906532 253.922485
4 212.126892 139.728088 7.736557 -7.239493 1.226443 -60.767990 254.129135
[eye_left_bone]
3 27.973328 156.530457 -74.911186 -104.218590 -85.597984 4.718000 175.772507
4 28.648581 156.929413 -75.041336 -104.218590 -85.597984 4.718000 176.291763
[eye_right_bone]
3 38.199768 157.372162 53.794357 75.788536 -85.594551 4.713911 170.643066
4 39.054642 157.806610 53.651009 75.788536 -85.594551 4.713911 171.191772
[L_forearm]
3 322.776093 0.000000 -0.000119 0.000379 -0.002316 -108.587730 322.776093
4 322.776093 0.000000 -0.000119 0.000382 -0.002316 -108.709480 322.776093
[L_front_hand]
3 241.149185 -0.042021 -3.300071 -178.701553 -1.861518 -26.389656 241.171753
4 241.149185 -0.042021 -3.300071 -178.720261 -1.875594 -25.764994 241.171753
[L_weapon_bone]
3 156.183838 0.000000 0.000000 0.001597 0.001720 -4.267457 156.183838
4 156.183838 0.000000 0.000000 0.001523 0.001786 -9.093117 156.183838
[L_front_hand01_01]
3 86.095154 20.947098 -0.655860 -0.365735 -0.477812 75.179466 88.609184
4 86.095154 20.947098 -0.655860 -0.364720 -0.478588 74.936234 88.609184
[L_front_hand02_01]
3 86.935165 -11.437475 24.513514 154.083481 -59.794327 -61.001266 91.046425
4 86.935165 -11.437475 24.513514 153.708527 -59.690228 -60.568150 91.046425
[L_front_hand03_01]
3 86.637497 -14.123976 -20.424902 -153.626984 58.028236 -62.364826 90.126129
4 86.637497 -14.123976 -20.424902 -153.279221 57.922546 -61.955151 90.126129
[L_front_hand01_02]
3 71.020905 -0.000179 0.000030 0.000334 -0.002323 -106.379684 71.020905
4 71.020905 -0.000179 0.000030 0.000334 -0.002323 -106.379684 71.020905
[L_front_hand02_02]
3 71.020927 -0.000119 0.000060 0.000334 -0.002323 -106.379684 71.020927
4 71.020927 -0.000119 0.000060 0.000334 -0.002323 -106.379684 71.020927
[L_front_hand03_02]
3 71.020905 -0.000060 0.000060 0.000334 -0.002323 -106.379684 71.020905
4 71.020905 -0.000060 0.000060 0.000334 -0.002323 -106.379684 71.020905
[R_forearm]
3 322.776428 -0.000060 0.000030 0.212500 0.020455 -96.624443 322.776428
4 322.776428 -0.000060 0.000030 0.209802 -0.005783 -89.379364 322.776428
[R_front_hand]
3 238.847015 -0.006795 2.210259 -2.635298 -10.645461 -26.312506 238.857239
4 238.847015 -0.006795 2.210259 -2.635298 -10.645461 -26.312506 238.857239
[R_weapon_bone]
3 155.664093 0.002503 -0.000030 0.003487 0.001180 -90.988930 155.664078
4 155.664093 0.002503 -0.000030 0.003487 0.001180 -90.988930 155.664078
[R_front_hand01_01]
3 87.624611 14.231146 22.918642 -147.452881 -57.531628 53.347282 91.683487
4 87.624611 14.231146 22.918642 -141.816315 -54.851692 46.568089 91.683487
[R_front_hand02_01]
3 89.356956 14.367283 -19.491137 147.849472 55.901863 55.706532 92.579636
4 89.356956 14.367283 -19.491137 142.510132 53.259499 49.159668 92.579636
[R_front_hand03_01]
3 87.286232 -22.307278 -0.143439 0.124644 -0.437237 -70.793335 90.091743
4 87.286232 -22.307278 -0.143439 0.088425 -0.445506 -66.170067 90.091743
[R_front_hand01_02]
3 71.020905 0.000060 0.000119 0.002339 -0.000193 99.435295 71.020905
4 71.020905 0.000060 0.000119 0.002340 -0.000183 98.965759 71.020905
[R_front_hand02_02]
3 71.020844 -0.000030 -0.000119 0.002339 -0.000193 99.435295 71.020836
4 71.020844 -0.000030 -0.000119 0.002340 -0.000183 98.965759 71.020836
[R_front_hand03_02]
3 71.020905 0.000000 0.000030 0.002339 -0.000193 99.431007 71.020905
4 71.020905 0.000000 0.000030 0.002340 -0.000183 98.962547 71.020905
[null_rope01_connect]
3 328.732483 0.000000 -0.000238 -167.134796 -58.627831 -94.304749 328.732483
4 328.732483 0.000000 -0.000238 -165.277145 -53.791595 -88.886009 328.732483
[Rope1_Seg01]
3 -0.000037 0.000036 0.000143 50.990967 -10.234490 -121.781525 0.000152
4 -0.000036 0.000035 0.000138 50.387093 -15.951413 -121.589783 0.000147
[Rope1_Seg02]
3 139.999863 -0.000179 0.000000 -5.536031 3.830978 1.248182 139.999863
4 139.999863 -0.000179 0.000000 -4.045756 3.071067 1.695240 139.999863
[Rope1_Seg03]
3 139.999924 0.000060 -0.000060 -8.001949 4.759721 2.358228 139.999924
4 139.999924 0.000060 -0.000060 -6.168910 4.302550 2.932259 139.999924
[Rope1_Seg04]
3 139.999924 -0.000060 -0.000119 -11.128188 4.376474 6.874989 139.999924
4 139.999924 -0.000060 -0.000119 -8.962933 3.021683 9.916589 139.999924
[Rope1_Seg05]
3 139.999832 0.000119 -0.000060 -20.849979 14.362350 1.461158 139.999832
4 139.999832 0.000119 -0.000060 -22.546547 21.392223 1.281617 139.999832
[Rope1_Seg06]
3 139.999954 0.000119 -0.000060 -13.720798 7.638818 1.447801 139.999954
4 139.999954 0.000119 -0.000060 -18.360357 12.769899 2.149282 139.999954
[Rope1_Seg07]
3 139.999985 0.000060 0.000000 -6.982194 2.765599 1.924594 139.999985
4 139.999985 0.000060 0.000000 -8.892326 4.189293 3.170918 139.999985
[Rope1_Seg09]
3 121.602913 0.000119 -0.000089 -89.400291 -1.359056 0.846264 121.602913
4 121.602913 0.000119 -0.000089 -89.560440 -1.357872 0.848162 121.602913
[L_mid_hand01]
3 103.859421 1.038730 8.195221 106.042580 -26.207779 -7.767942 104.187431
4 103.859421 1.038730 8.195221 105.417549 -21.185928 -6.225375 104.187431
[L_mid_hand02]
3 105.572853 -4.139662 -10.864139 -140.493759 22.478060 -24.283102 106.211075
4 105.572853 -4.139662 -10.864139 -138.980621 19.105467 -20.026217 106.211075
[L_mid_hand03]
3 104.641464 17.579376 -3.913581 -16.918470 8.243919 29.133947 106.179977
4 104.641464 17.579376 -3.913581 -17.573988 6.692881 24.105686 106.179977
[null_rope02_connect]
3 328.732849 0.000179 -0.000119 -116.386536 42.722614 4.649378 328.732849
4 328.732849 0.000179 -0.000119 -113.542305 30.806070 19.491848 328.732849
[Rope2_Seg01]
3 0.000095 0.000153 0.000005 27.876959 -27.509560 -45.358967 0.000180
4 0.000095 0.000153 0.000007 21.833113 -42.313213 -40.347645 0.000180
[Rope2_Seg02]
3 139.999741 -0.000060 -0.000119 -12.179493 27.305628 -8.915453 139.999756
4 139.999741 -0.000060 -0.000119 -23.934771 39.651981 -3.721104 139.999756
[Rope2_Seg03]
3 140.000107 0.000030 0.000000 -59.270565 15.850458 1.969805 140.000107
4 140.000107 0.000030 0.000000 -46.870987 18.494724 8.591374 140.000107
[Rope2_Seg04]
3 139.999802 0.000000 -0.000060 -39.892422 5.263220 3.052773 139.999802
4 139.999802 0.000000 -0.000060 -20.281918 3.114048 6.812691 139.999802
[Rope2_Seg05]
3 139.999985 -0.000060 0.000119 -92.852325 9.959080 2.708405 139.999985
4 139.999985 -0.000060 0.000119 -17.758440 3.384232 5.861101 139.999985
[Rope2_Seg06]
3 139.999893 -0.000030 -0.000119 -32.213078 -3.517885 11.538566 139.999893
4 139.999893 -0.000030 -0.000119 -28.516140 4.938488 11.263398 139.999893
[Rope2_Seg07]
3 139.999893 0.000060 -0.000060 -3.478791 -7.004510 4.756636 139.999893
4 139.999893 0.000060 -0.000060 -17.214394 -2.254254 12.306754 139.999893
[Rope2_Seg09]
3 121.338966 0.000089 -0.000060 33.793236 -1.359788 -0.847141 121.338966
4 121.338966 0.000089 -0.000060 33.793236 -1.359788 -0.847141 121.338966
[R_mid_hand01]
3 104.680779 11.144459 -10.335981 -43.389069 21.487944 23.909441 105.778534
4 104.680779 11.144459 -10.335981 -44.968380 17.106186 19.135353 105.778534
[R_mid_hand02]
3 104.070427 2.443552 8.231699 73.809685 -27.165421 8.087244 104.424065
4 104.070427 2.443552 8.231699 74.578720 -21.119291 6.210459 104.424065
[R_mid_hand03]
3 106.028137 -11.221827 -5.996406 -166.934555 8.989377 -31.243221 106.788818
4 106.028137 -11.221827 -5.996406 -166.046585 7.519541 -25.068808 106.788818
[spine02]
3 129.756927 0.001550 0.000119 0.409141 -4.039616 -13.609279 129.756927
4 129.756927 0.001550 0.000119 0.422858 -4.038119 -13.858975 129.756927
[spine03]
3 78.614044 0.081625 -4.899019 1.980656 3.788480 17.746241 78.766579
4 78.614044 0.081620 -4.899019 2.017472 3.770970 18.293308 78.766579
[pelvis]
3 169.435242 0.051022 0.000000 -0.061061 -0.180025 14.466758 169.435257
4 169.435242 0.051022 0.000000 -0.061327 -0.179934 14.636257 169.435257
[null_rope03_connect]
3 -1.257226 -2.466202 137.391083 99.268631 -74.272667 -35.875790 137.418976
4 -1.257226 -2.466202 137.391083 102.759659 -68.987053 -37.147247 137.418976
[null_rope04_connect]
3 -1.259640 -2.480268 -137.844437 99.268631 -74.272667 -35.875790 137.872513
4 -1.259640 -2.480268 -137.844437 102.759659 -68.987053 -37.147247 137.872513
[Rope3_Seg01]
3 0.000000 0.000000 0.000000 -130.077194 38.752346 -71.084152 0.000000
4 0.000000 0.000000 0.000000 -127.424377 40.162537 -66.663231 0.000000
[Rope3_Seg02]
3 139.999924 -0.000119 0.000060 0.167617 -0.582102 -3.446901 139.999924
4 139.999924 -0.000119 0.000060 0.120530 -1.761329 -3.225586 139.999924
[Rope3_Seg03]
3 139.999924 -0.000119 0.000119 0.085793 -0.762164 -4.461146 139.999924
4 139.999924 -0.000119 0.000119 0.126925 -2.448509 -4.469158 139.999924
[Rope3_Seg04]
3 139.999924 0.000119 0.000000 0.135827 -4.060748 -8.527890 139.999924
4 139.999924 0.000119 0.000000 0.976047 -7.762280 -8.703269 139.999924
[Rope3_Seg05]
3 139.999924 -0.000238 0.000060 -0.846478 -0.646153 -7.824069 139.999924
4 139.999924 -0.000238 0.000060 -0.557028 -3.398197 -9.259398 139.999924
[Rope3_Seg06]
3 139.999893 -0.000119 -0.000060 -0.846899 14.889454 5.539556 139.999893
4 139.999893 -0.000119 -0.000060 -5.551595 21.916704 1.619268 139.999893
[Rope3_Seg07]
3 139.999771 0.000060 -0.000119 0.810205 11.314635 4.043818 139.999771
4 139.999771 0.000060 -0.000119 -1.132637 16.847223 1.253929 139.999771
[Rope3_Seg08]
3 139.999985 -0.000060 0.000000 1.180807 6.754311 1.760906 139.999985
4 139.999985 -0.000060 0.000000 0.667002 10.100968 0.562081 139.999985
[Rope3_Seg09]
3 90.185997 -0.000179 -0.000060 86.253593 -1.360835 -0.845457 90.185997
4 90.185997 -0.000179 -0.000060 84.350563 -1.358426 -0.848057 90.185997
[R_rear_hand01]
3 103.366196 -6.073594 -10.757982 -160.005554 14.750708 -24.383490 104.101845
4 103.366196 -6.073594 -10.757982 -158.724411 12.779007 -19.005732 104.101845
[R_rear_hand02]
3 100.509819 12.039542 -7.992327 -35.793762 15.947124 23.882643 101.543350
4 100.509819 12.039542 -7.992327 -36.941399 12.636292 19.237955 101.543350
[R_rear_hand03]
3 101.539970 5.215704 5.435467 83.712227 -25.154428 6.543104 101.819031
4 101.539970 5.215704 5.435467 83.961388 -19.601210 5.895136 101.819031
[Rope4_Seg01]
3 -0.000018 -0.000072 -0.000153 45.590809 7.235585 -110.820526 0.000170
4 -0.000018 -0.000069 -0.000153 46.640804 -0.573947 -104.804832 0.000169
[Rope4_Seg02]
3 139.999985 0.000060 0.000119 -0.062279 7.544641 0.458509 139.999985
4 139.999985 0.000060 0.000119 -0.000632 6.167132 -0.870083 139.999985
[Rope4_Seg03]
3 139.999924 0.000000 -0.000238 0.612822 11.277815 0.703285 139.999924
4 139.999924 0.000000 -0.000238 0.617182 9.973514 -1.423957 139.999924
[Rope4_Seg04]
3 139.999985 0.000000 0.000119 5.354031 26.692970 4.692592 139.999985
4 139.999985 0.000000 0.000119 5.598499 26.422178 -1.078669 139.999985
[Rope4_Seg05]
3 139.999802 -0.000060 -0.000119 14.612121 24.848579 1.481849 139.999802
4 139.999802 -0.000060 -0.000119 23.184309 32.071556 -5.802872 139.999802
[Rope4_Seg06]
3 139.999924 0.000000 0.000060 -4.555340 -29.917799 -6.532356 139.999924
4 139.999924 0.000000 0.000060 -13.843708 -36.370613 3.290728 139.999924
[Rope4_Seg07]
3 139.999802 0.000000 0.000000 1.219207 -31.941750 -9.049801 139.999802
4 139.999802 0.000000 0.000000 -0.438391 -32.261589 -3.089654 139.999802
[Rope4_Seg08]
3 139.999924 0.000000 0.000119 -1.088235 -8.106732 -2.886617 139.999924
4 139.999924 0.000000 0.000119 -0.810700 -8.506484 -1.748324 139.999924
[Rope4_Seg09]
3 90.185791 0.000060 0.000060 -138.110153 2.230757 0.850422 90.185791
4 90.185791 0.000060 0.000060 -139.615845 2.229786 0.853535 90.185791
[L_rear_hand01]
3 101.696655 -8.392275 -7.654577 -36.065723 -15.249181 157.123398 102.329041
4 101.696655 -8.392275 -7.654577 -37.242527 -11.574301 162.196594 102.329041
[L_rear_hand02]
3 102.726799 -1.568258 5.773216 83.777115 23.970695 173.600632 102.900848
4 102.726799 -1.568258 5.773216 84.022964 17.852329 174.296112 102.900848
[L_rear_hand03]
3 104.552910 9.721220 -10.420293 -159.714264 -14.341211 -156.771698 105.519653
4 104.552910 9.721220 -10.420293 -158.362930 -12.135302 -162.671356 105.519653
